<svg width="101" height="99" viewBox="0 0 101 99" fill="none" xmlns="http://www.w3.org/2000/svg">
<g clip-path="url(#clip0_2291_87)">
<path d="M85.2067 65.2955C86.8235 77.5244 86.9363 77.5244 99.3452 79.4491C100.323 79.6381 101 80.3172 101 81.261C101 82.2044 100.323 82.8839 99.3826 83.0725C86.8235 85.488 86.8612 85.2994 85.2067 97.3018C85.0561 98.2453 84.3041 98.8868 83.4019 98.8868C82.3866 98.8868 81.6719 98.2078 81.5968 97.2261C79.98 85.2241 79.8672 85.1862 67.496 83.0725C66.4433 82.8839 65.8037 82.2423 65.8037 81.261C65.8037 80.3929 66.4055 79.6756 67.3454 79.4491C79.8672 77.0715 79.98 77.3358 81.5968 65.3334C81.6719 64.3521 82.3866 63.6348 83.4019 63.6348C84.3418 63.6348 85.0938 64.3142 85.2067 65.2955Z" fill="#DB9533"/>
<path d="M32.7142 1.28326C34.3687 10.5303 34.1431 10.1906 43.3932 12.0023C44.1829 12.191 44.6719 12.7572 44.6719 13.512C44.6719 14.2291 44.1829 14.833 43.3932 14.984C34.1431 16.7957 34.3687 16.456 32.7142 25.703C32.5638 26.4579 31.9622 26.9863 31.2477 26.9863C30.4957 26.9863 29.8941 26.4579 29.7813 25.703C28.1268 16.456 28.3524 16.7957 19.1022 14.984C18.3125 14.833 17.8237 14.2291 17.8237 13.512C17.8237 12.7572 18.3125 12.191 19.1022 12.0023C28.3524 10.1906 28.1268 10.5303 29.7813 1.28326C29.8941 0.528404 30.4957 0 31.2477 0C31.9622 0 32.5638 0.528404 32.7142 1.28326Z" fill="#DB9533"/>
<path d="M44.1829 83.6765C44.1829 90.9985 38.2418 96.962 31.0598 96.962C23.7649 96.962 17.8237 90.9985 17.8237 83.6765C17.8237 76.4677 23.7649 70.5042 31.0598 70.5042C38.2042 70.5042 44.1829 76.4677 44.1829 83.6765ZM24.1033 83.6765C24.1033 87.5263 27.1867 90.6213 31.0598 90.6213C34.7448 90.6213 37.8657 87.4509 37.8657 83.6765C37.8657 79.9399 34.7448 76.807 31.0598 76.807C27.2619 76.807 24.1033 79.9399 24.1033 83.6765Z" fill="#DB9533"/>
<path d="M24.4791 40.9513C24.4791 47.7075 18.914 53.2556 12.2583 53.2556C5.52756 53.2556 0 47.745 0 40.9513C0 34.233 5.52756 28.6848 12.2583 28.6848C18.914 28.6848 24.4791 34.2708 24.4791 40.9513ZM6.27959 40.9513C6.27959 44.2349 8.94936 46.9148 12.2583 46.9148C15.4922 46.9148 18.1995 44.2349 18.1995 40.9513C18.1995 37.7054 15.4922 35.0256 12.2583 35.0256C8.98694 35.0256 6.27959 37.7054 6.27959 40.9513Z" fill="#DB9533"/>
<path d="M98.7063 28.6847C98.7063 41.0265 88.7039 50.991 76.3704 50.991C75.8899 50.991 75.4132 50.9755 74.9476 50.9191C75.1694 49.8087 75.2799 48.6577 75.2799 47.4809C75.2799 46.505 75.2041 45.5473 75.0358 44.6205C75.4736 44.6691 75.9199 44.6877 76.3704 44.6877C85.2069 44.6877 92.4265 37.5543 92.4265 28.6847C92.4265 19.7773 85.2819 12.6061 76.3704 12.6061C67.4962 12.6061 60.3516 19.7773 60.3516 28.6847C60.3516 28.9576 60.3586 29.2289 60.3924 29.4929C59.3216 29.2795 58.2127 29.1753 57.0803 29.1753C56.0657 29.1753 55.0711 29.2577 54.11 29.4375C54.0765 29.192 54.0723 28.9388 54.0723 28.6847C54.0723 16.3049 64.0369 6.30298 76.3704 6.30298C88.7039 6.30298 98.7063 16.3049 98.7063 28.6847Z" fill="#DB9533"/>
<path d="M57.0803 65.7483C67.12 65.7483 75.28 57.5957 75.28 47.4809C75.28 37.3655 67.12 29.1753 57.0803 29.1753C46.9655 29.1753 38.8433 37.3655 38.8433 47.4809C38.8433 57.5957 46.9655 65.7483 57.0803 65.7483ZM57.0803 59.4454C50.4247 59.4454 45.123 54.1234 45.123 47.4809C45.123 40.8379 50.4247 35.4784 57.0803 35.4784C63.6608 35.4784 69.0002 40.8379 69.0002 47.4809C69.0002 54.1234 63.6608 59.4454 57.0803 59.4454Z" fill="#DB9533"/>
</g>
<defs>
<clipPath id="clip0_2291_87">
<rect width="101" height="99" fill="white"/>
</clipPath>
</defs>
</svg>
