<svg width="101" height="99" viewBox="0 0 101 99" fill="none" xmlns="http://www.w3.org/2000/svg">
<g clip-path="url(#clip0_2291_87)">
<path d="M15.7933 65.2955C14.1765 77.5244 14.0637 77.5244 1.65476 79.4491C0.677126 79.6381 0.000212685 80.3172 0.000212685 81.261C0.000212685 82.2044 0.67712 82.8839 1.61741 83.0725C14.1765 85.488 14.1388 85.2994 15.7933 97.3018C15.9439 98.2453 16.6959 98.8868 17.5981 98.8868C18.6134 98.8868 19.3281 98.2078 19.4032 97.2261C21.02 85.2241 21.1328 85.1862 33.504 83.0725C34.5567 82.8839 35.1963 82.2423 35.1963 81.261C35.1963 80.3929 34.5945 79.6756 33.6546 79.4491C21.1328 77.0715 21.02 77.3358 19.4032 65.3334C19.3281 64.3521 18.6134 63.6348 17.5981 63.6348C16.6582 63.6348 15.9062 64.3142 15.7933 65.2955Z" fill="#DB9533"/>
<path d="M68.2858 1.28326C66.6313 10.5303 66.8569 10.1906 57.6068 12.0023C56.8171 12.191 56.3281 12.7572 56.3281 13.512C56.3281 14.2291 56.8171 14.833 57.6068 14.984C66.8569 16.7957 66.6313 16.456 68.2858 25.703C68.4362 26.4579 69.0378 26.9863 69.7523 26.9863C70.5043 26.9863 71.1059 26.4579 71.2187 25.703C72.8732 16.456 72.6476 16.7957 81.8978 14.984C82.6875 14.833 83.1763 14.2291 83.1763 13.512C83.1763 12.7572 82.6875 12.191 81.8978 12.0023C72.6476 10.1906 72.8732 10.5303 71.2187 1.28326C71.1059 0.528404 70.5043 0 69.7523 0C69.0378 0 68.4362 0.528404 68.2858 1.28326Z" fill="#DB9533"/>
<path d="M56.8171 83.6765C56.8171 90.9985 62.7582 96.962 69.9402 96.962C77.2351 96.962 83.1763 90.9985 83.1763 83.6765C83.1763 76.4677 77.2351 70.5042 69.9402 70.5042C62.7958 70.5042 56.8171 76.4677 56.8171 83.6765ZM76.8967 83.6765C76.8967 87.5263 73.8133 90.6213 69.9402 90.6213C66.2552 90.6213 63.1343 87.4509 63.1343 83.6765C63.1343 79.9399 66.2552 76.807 69.9402 76.807C73.7381 76.807 76.8967 79.9399 76.8967 83.6765Z" fill="#DB9533"/>
<path d="M76.5209 40.9513C76.5209 47.7075 82.086 53.2556 88.7417 53.2556C95.4724 53.2556 101 47.745 101 40.9513C101 34.233 95.4724 28.6848 88.7417 28.6848C82.086 28.6848 76.5209 34.2708 76.5209 40.9513ZM94.7204 40.9513C94.7204 44.2349 92.0506 46.9148 88.7417 46.9148C85.5078 46.9148 82.8005 44.2349 82.8005 40.9513C82.8005 37.7054 85.5078 35.0256 88.7417 35.0256C92.0131 35.0256 94.7204 37.7054 94.7204 40.9513Z" fill="#DB9533"/>
<path d="M2.29375 28.6847C2.29375 41.0265 12.2961 50.991 24.6296 50.991C25.1101 50.991 25.5868 50.9755 26.0524 50.9191C25.8306 49.8087 25.7201 48.6577 25.7201 47.4809C25.7201 46.505 25.7959 45.5473 25.9642 44.6205C25.5264 44.6691 25.0801 44.6877 24.6296 44.6877C15.7931 44.6877 8.57349 37.5543 8.57349 28.6847C8.57349 19.7773 15.7181 12.6061 24.6296 12.6061C33.5038 12.6061 40.6484 19.7773 40.6484 28.6847C40.6484 28.9576 40.6414 29.2289 40.6076 29.4929C41.6784 29.2795 42.7873 29.1753 43.9197 29.1753C44.9343 29.1753 45.9289 29.2577 46.89 29.4375C46.9235 29.192 46.9277 28.9388 46.9277 28.6847C46.9277 16.3049 36.9631 6.30298 24.6296 6.30298C12.2961 6.30298 2.29375 16.3049 2.29375 28.6847Z" fill="#DB9533"/>
<path d="M43.9197 65.7483C33.88 65.7483 25.72 57.5957 25.72 47.4809C25.72 37.3655 33.88 29.1753 43.9197 29.1753C54.0345 29.1753 62.1567 37.3655 62.1567 47.4809C62.1567 57.5957 54.0345 65.7483 43.9197 65.7483ZM43.9197 59.4454C50.5753 59.4454 55.877 54.1234 55.877 47.4809C55.877 40.8379 50.5753 35.4784 43.9197 35.4784C37.3392 35.4784 31.9998 40.8379 31.9998 47.4809C31.9998 54.1234 37.3392 59.4454 43.9197 59.4454Z" fill="#DB9533"/>
</g>
<defs>
<clipPath id="clip0_2291_87">
<rect width="101" height="99" fill="white" transform="matrix(-1 0 0 1 101 0)"/>
</clipPath>
</defs>
</svg>
