<svg width="173" height="254" viewBox="0 0 173 254" fill="none" xmlns="http://www.w3.org/2000/svg">
<path d="M164.37 30.3789C163.807 38.9207 137.308 44.1265 105.184 42.0063C73.0604 39.886 47.4759 31.2427 48.0397 22.7009C48.6034 14.1591 75.102 8.95334 107.226 11.0736C139.35 13.1938 164.934 21.8371 164.37 30.3789Z" fill="#E7DDBA"/>
<path d="M98.9906 253.621L82.7537 252.549C46.4953 250.156 25.4532 222.427 28.2176 180.541L38.2732 28.1872C39.6119 7.90469 69.0238 -1.14483 107.484 1.39359C145.875 3.92745 173.843 16.7641 172.504 37.0466L162.449 189.401C159.684 231.286 135.249 256.014 98.9906 253.621ZM104.85 41.2982C135.811 43.3416 157.97 39.4982 158.449 32.2342C158.928 24.9703 137.467 18.2479 106.507 16.2045C75.546 14.161 53.3183 17.9999 52.8388 25.2638C52.3594 32.5278 73.8898 39.2547 104.85 41.2982ZM36.2472 178.229L22.6936 177.334C7.97039 176.362 -0.440198 162.448 0.91096 141.977L4.23581 91.601C5.59316 71.0355 15.7595 58.3471 30.4827 59.3188L44.0364 60.2134L42.9966 75.9677L29.4429 75.0731C20.6363 74.4919 16.5665 79.6239 15.7259 92.3594L12.4011 142.735C11.5667 155.376 14.9268 160.999 23.7333 161.58L37.287 162.475L36.2472 178.229Z" fill="#86A5B2"/>
</svg>
