<svg width="172" height="254" viewBox="0 0 172 254" fill="none" xmlns="http://www.w3.org/2000/svg">
<path d="M8.19473 30.3789C8.7585 38.9207 35.2571 44.1265 67.3809 42.0063C99.5048 39.886 125.089 31.2427 124.525 22.7009C123.962 14.1591 97.4632 8.95334 65.3393 11.0736C33.2155 13.1938 7.63095 21.8371 8.19473 30.3789Z" fill="#E7DDBA"/>
<path d="M73.5745 253.621L89.8114 252.549C126.07 250.156 147.112 222.427 144.348 180.541L134.292 28.1872C132.953 7.90469 103.541 -1.14483 65.0811 1.39359C26.69 3.92745 -1.27793 16.7641 0.0607367 37.0466L10.1163 189.401C12.8808 231.286 37.3162 256.014 73.5745 253.621ZM67.7149 41.2982C36.7542 43.3416 14.5956 39.4982 14.1161 32.2342C13.6367 24.9703 35.098 18.2479 66.0586 16.2045C97.0192 14.161 119.247 17.9999 119.726 25.2638C120.206 32.5278 98.6754 39.2547 67.7149 41.2982ZM136.318 178.229L149.872 177.334C164.595 176.362 173.005 162.448 171.654 141.977L168.329 91.601C166.972 71.0355 156.806 58.3471 142.082 59.3188L128.529 60.2134L129.569 75.9677L143.122 75.0731C151.929 74.4919 155.999 79.6239 156.839 92.3594L160.164 142.735C160.998 155.376 157.638 160.999 148.832 161.58L135.278 162.475L136.318 178.229Z" fill="#86A5B2"/>
</svg>
